<svg id="Layer_1" data-name="Layer 1" xmlns="http://www.w3.org/2000/svg" viewBox="0 0 112.68 122.88"><title>discount-voucher</title><path d="M100.87,60.09c-5.65-8.65-9.59-14.76-13.78-21.23-2.2-3.41-4.48-6.93-7.44-11.48l-1.3.85a2.7,2.7,0,0,1-4-3.12,2.64,2.64,0,0,1,1.08-1.4l1.31-.86c-3-4.68-6.77-10.39-11.59-17.77a.68.68,0,0,0-.41-.28.71.71,0,0,0-.49.09L62,6.32a10.12,10.12,0,0,1,.45,5.75,10.24,10.24,0,0,1-4.36,6.44l-.07.06A10.31,10.31,0,0,1,45.34,17.4L43,18.86a10.3,10.3,0,0,1,.48,5.56A10.13,10.13,0,0,1,39.09,31l-.37.24a10.09,10.09,0,0,1-7.58,1.28,10.39,10.39,0,0,1-5-2.71l-2.93,1.91a.65.65,0,0,0-.24.38.68.68,0,0,0,0,.42l.1.16c4.7,7.19,8.39,12.93,11.47,17.72l.08,0,4.52-3a2.7,2.7,0,0,1,4,3.12,2.74,2.74,0,0,1-1.08,1.4l-4.52,2.95-.12.07c1.13,1.77,2.22,3.46,3.35,5.19Zm-65.68,0-3.85-6c-3.1-4.83-6.85-10.67-12.25-18.94h0a5.43,5.43,0,0,1,1.55-7.5c1.26-.84,3.49-2.47,4.74-3.1a2.4,2.4,0,0,1,3.31.73l0,.06a5.61,5.61,0,0,0,3.46,2.46,5.36,5.36,0,0,0,4-.67l.25-.16a5.37,5.37,0,0,0,2.31-3.46,5.6,5.6,0,0,0-.86-4.15l-.09-.15a2.4,2.4,0,0,1,.79-3.29l5.95-3.65a2.39,2.39,0,0,1,3.32.69,5.45,5.45,0,0,0,7.57,1.59l.06,0a5.5,5.5,0,0,0,2.32-3.43,5.34,5.34,0,0,0-.76-4l-.15-.22a2.4,2.4,0,0,1,.7-3.32l4-2.62a5.45,5.45,0,0,1,7.52,1.58C80,19,85.73,28,91.11,36.26c4,6.26,7.83,12.11,15.49,23.83h.63a5.46,5.46,0,0,1,5.45,5.44v5.61a2.41,2.41,0,0,1-2.4,2.4H110a5.3,5.3,0,0,0-3.77,1.57,5.47,5.47,0,0,0-1.61,3.83v.14a5.32,5.32,0,0,0,1.62,3.84l.11.11a5.63,5.63,0,0,0,3.84,1.45h.1a2.4,2.4,0,0,1,2.4,2.38h0v10a2.4,2.4,0,0,1-2.4,2.4h-.1a5.7,5.7,0,0,0-3.94,1.55,5.37,5.37,0,0,0-1.64,3.84v.15a5.49,5.49,0,0,0,1.61,3.83,5.32,5.32,0,0,0,3.77,1.58h.28a2.39,2.39,0,0,1,2.41,2.37v0h0v4.78a5.46,5.46,0,0,1-5.45,5.44H5.44A5.46,5.46,0,0,1,0,117.44v-4.78a2.4,2.4,0,0,1,2.4-2.4h.3a5.3,5.3,0,0,0,3.77-1.57,5.55,5.55,0,0,0,1.61-3.83v-.07h0A5.46,5.46,0,0,0,2.6,99.32a2.4,2.4,0,0,1-2.4-2.4v-.16L0,86.92a2.39,2.39,0,0,1,2.34-2.44H2.5a5.67,5.67,0,0,0,4-1.54h0a5.36,5.36,0,0,0,1.62-3.84v-.16a5.37,5.37,0,0,0-1.62-3.83L6.35,75A5.68,5.68,0,0,0,2.5,73.54l-.27,0A2.38,2.38,0,0,1,0,71.15H0V65.53a5.46,5.46,0,0,1,5.44-5.44Zm26.09,45.22a3.74,3.74,0,0,1-1.49,1.46,6.91,6.91,0,0,1-3.15.52c-1.48,0-2.21-.39-2.21-1.17a1.47,1.47,0,0,1,.09-.36l16-28.23a6.19,6.19,0,0,1,.75-1.11,3.53,3.53,0,0,1,1.24-.77,5.87,5.87,0,0,1,2.25-.38c1.87,0,2.8.41,2.8,1.22a.87.87,0,0,1-.09.4L61.28,105.31ZM54,92.45a14.65,14.65,0,0,1-3.46-.36,7.93,7.93,0,0,1-2.72-1.26c-1.72-1.23-2.57-3.62-2.57-7.17s.9-5.77,2.7-7a11,11,0,0,1,6-1.48,11.34,11.34,0,0,1,6.08,1.48c1.81,1.18,2.71,3.49,2.71,7s-.86,6-2.57,7.17A10.75,10.75,0,0,1,54,92.45Zm0-4.37a.72.72,0,0,0,.58-.27c.39-.42.59-1.49.59-3.2A22.78,22.78,0,0,0,55,81.07a2.65,2.65,0,0,0-.41-1.2.78.78,0,0,0-.58-.22c-.79,0-1.18,1.4-1.18,4.21s.39,4.22,1.18,4.22ZM77.7,107.74a14.5,14.5,0,0,1-3.45-.36,7.89,7.89,0,0,1-2.73-1.26C69.8,104.89,69,102.5,69,99s.9-5.76,2.7-6.9a10.76,10.76,0,0,1,6-1.54,11.14,11.14,0,0,1,6.09,1.54q2.7,1.71,2.7,6.9c0,3.58-.85,6-2.57,7.17a10.75,10.75,0,0,1-6.22,1.62Zm0-4.37a.78.78,0,0,0,.58-.23c.4-.45.59-1.53.59-3.24a22.78,22.78,0,0,0-.18-3.54,2.65,2.65,0,0,0-.41-1.2.78.78,0,0,0-.58-.23c-.78,0-1.17,1.41-1.17,4.22s.39,4.22,1.17,4.22Zm29.53-38.48h-78v3.6a1.63,1.63,0,0,1,0,.31A2.1,2.1,0,0,1,25,68.49v-3.6H5.44a.64.64,0,0,0-.45.19.68.68,0,0,0-.19.45V69a10.38,10.38,0,0,1,4.83,2.53l.15.13a10.14,10.14,0,0,1,3.08,7.25v.24a10.14,10.14,0,0,1-3.08,7.24A10.36,10.36,0,0,1,4.84,89L5,94.79a10.26,10.26,0,0,1,7.92,10s0,.1,0,.12a10.28,10.28,0,0,1-8.06,9.93v2.6a.65.65,0,0,0,.64.64H25V114.7a1.45,1.45,0,0,1,0-.3,2.1,2.1,0,0,1,4.18.3v3.38h78a.67.67,0,0,0,.65-.64v-2.61a10.13,10.13,0,0,1-5.07-2.77,10.33,10.33,0,0,1-3-7.15v-.24a10.18,10.18,0,0,1,3.09-7.23h0a10.38,10.38,0,0,1,5-2.66V89a10.27,10.27,0,0,1-4.83-2.52l-.15-.13a10.19,10.19,0,0,1-3.09-7.24v-.25a10.37,10.37,0,0,1,3-7.15A10.14,10.14,0,0,1,107.88,69V65.53a.65.65,0,0,0-.2-.45.6.6,0,0,0-.45-.19ZM25,81.09a2.1,2.1,0,0,0,4.18.31,1.55,1.55,0,0,0,0-.31v-4.2a2.1,2.1,0,0,0-4.18-.3,1.45,1.45,0,0,0,0,.3v4.2ZM25,93.7a2.1,2.1,0,0,0,4.18.3,1.45,1.45,0,0,0,0-.3V89.5a2.1,2.1,0,0,0-4.18-.31,1.55,1.55,0,0,0,0,.31v4.2Zm0,12.6a2.1,2.1,0,0,0,4.18.31,1.63,1.63,0,0,0,0-.31v-4.2a2.1,2.1,0,0,0-4.18-.31,1.63,1.63,0,0,0,0,.31v4.2ZM55.75,43a2.76,2.76,0,0,0,1.08-1.39,2.7,2.7,0,0,0-4-3.13l-4.52,3a2.7,2.7,0,1,0,3,4.52l4.52-3Zm13.56-8.87a2.62,2.62,0,0,0,1.08-1.39,2.7,2.7,0,0,0-4-3.13l-4.53,3A2.76,2.76,0,0,0,60.75,34a2.7,2.7,0,0,0,4,3.13l4.52-3Z"/></svg>